<mxfile host="app.diagrams.net" modified="2024-02-22T10:49:01.177Z" agent="Mozilla/5.0 (Windows NT 10.0; Win64; x64) AppleWebKit/537.36 (KHTML, like Gecko) Chrome/121.0.0.0 Safari/537.36" etag="a5IVNegTICyhe0eUcCoH" version="23.1.5" type="google">
  <diagram name="PÃ¡gina-1" id="L_KA6owvDT4ciPJ2GJuy">
    <mxGraphModel grid="1" page="1" gridSize="10" guides="1" tooltips="1" connect="1" arrows="1" fold="1" pageScale="1" pageWidth="827" pageHeight="1169" math="0" shadow="0">
      <root>
        <mxCell id="0" />
        <mxCell id="1" parent="0" />
        <mxCell id="KOdECNxRX-FhWm_kPqan-2" value="&lt;u&gt;userName&lt;/u&gt;" style="ellipse;whiteSpace=wrap;html=1;fillColor=#dae8fc;strokeColor=#6c8ebf;" vertex="1" parent="1">
          <mxGeometry x="170" y="640" width="100" height="60" as="geometry" />
        </mxCell>
        <mxCell id="KOdECNxRX-FhWm_kPqan-3" value="Password" style="ellipse;whiteSpace=wrap;html=1;fillColor=#dae8fc;strokeColor=#6c8ebf;" vertex="1" parent="1">
          <mxGeometry x="277" y="960" width="96" height="60" as="geometry" />
        </mxCell>
        <mxCell id="KOdECNxRX-FhWm_kPqan-5" value="&lt;font style=&quot;font-size: 12px;&quot;&gt;Jugador&lt;/font&gt;" style="rounded=0;whiteSpace=wrap;html=1;fontSize=16;fillColor=#fff2cc;strokeColor=#d6b656;" vertex="1" parent="1">
          <mxGeometry x="349" y="650" width="120" height="60" as="geometry" />
        </mxCell>
        <mxCell id="KOdECNxRX-FhWm_kPqan-7" value="XP" style="ellipse;whiteSpace=wrap;html=1;fillColor=#dae8fc;strokeColor=#6c8ebf;" vertex="1" parent="1">
          <mxGeometry x="404" y="960" width="103" height="60" as="geometry" />
        </mxCell>
        <mxCell id="KOdECNxRX-FhWm_kPqan-12" value="" style="endArrow=none;html=1;rounded=0;fontSize=12;curved=1;startSize=8;endSize=8;exitX=0.5;exitY=0;exitDx=0;exitDy=0;entryX=0.75;entryY=1;entryDx=0;entryDy=0;" edge="1" parent="1" source="KOdECNxRX-FhWm_kPqan-7" target="wfgGid8vCz2RtBhVFj7B-10">
          <mxGeometry width="50" height="50" relative="1" as="geometry">
            <mxPoint x="173" y="710" as="sourcePoint" />
            <mxPoint x="297" y="650" as="targetPoint" />
          </mxGeometry>
        </mxCell>
        <mxCell id="KOdECNxRX-FhWm_kPqan-13" value="" style="endArrow=none;html=1;rounded=0;fontSize=12;curved=1;startSize=8;endSize=8;exitX=0.75;exitY=0;exitDx=0;exitDy=0;entryX=0.5;entryY=0;entryDx=0;entryDy=0;" edge="1" parent="1" source="wfgGid8vCz2RtBhVFj7B-10" target="KOdECNxRX-FhWm_kPqan-3">
          <mxGeometry width="50" height="50" relative="1" as="geometry">
            <mxPoint x="173" y="710" as="sourcePoint" />
            <mxPoint x="223" y="660" as="targetPoint" />
          </mxGeometry>
        </mxCell>
        <mxCell id="d7tCG7x69AUS4NXZiZXm-7" style="edgeStyle=orthogonalEdgeStyle;rounded=0;orthogonalLoop=1;jettySize=auto;html=1;exitX=1;exitY=0.5;exitDx=0;exitDy=0;entryX=0;entryY=0.5;entryDx=0;entryDy=0;" edge="1" parent="1" source="d7tCG7x69AUS4NXZiZXm-8" target="KOdECNxRX-FhWm_kPqan-21">
          <mxGeometry relative="1" as="geometry" />
        </mxCell>
        <mxCell id="wiIumI7MI7V9PX__2pF9-33" style="edgeStyle=orthogonalEdgeStyle;rounded=0;orthogonalLoop=1;jettySize=auto;html=1;exitX=0.5;exitY=0;exitDx=0;exitDy=0;entryX=0.5;entryY=1;entryDx=0;entryDy=0;endArrow=none;endFill=0;" edge="1" parent="1" source="KOdECNxRX-FhWm_kPqan-17" target="uMI0lUIauq0ZDgRMflA2-3">
          <mxGeometry relative="1" as="geometry" />
        </mxCell>
        <mxCell id="KOdECNxRX-FhWm_kPqan-17" value="juega" style="rhombus;whiteSpace=wrap;html=1;fillColor=#e1d5e7;strokeColor=#9673a6;" vertex="1" parent="1">
          <mxGeometry x="797" y="640" width="50" height="80" as="geometry" />
        </mxCell>
        <mxCell id="KOdECNxRX-FhWm_kPqan-18" value="" style="endArrow=none;html=1;rounded=0;fontSize=12;curved=1;startSize=8;endSize=8;entryX=1;entryY=0.5;entryDx=0;entryDy=0;exitX=0;exitY=0.5;exitDx=0;exitDy=0;" edge="1" parent="1" source="KOdECNxRX-FhWm_kPqan-19" target="KOdECNxRX-FhWm_kPqan-5">
          <mxGeometry width="50" height="50" relative="1" as="geometry">
            <mxPoint x="359" y="795" as="sourcePoint" />
            <mxPoint x="409" y="745" as="targetPoint" />
          </mxGeometry>
        </mxCell>
        <mxCell id="KOdECNxRX-FhWm_kPqan-21" value="Partida" style="rounded=0;whiteSpace=wrap;html=1;fillColor=#fff2cc;strokeColor=#d6b656;" vertex="1" parent="1">
          <mxGeometry x="1103" y="650" width="120" height="60" as="geometry" />
        </mxCell>
        <mxCell id="KOdECNxRX-FhWm_kPqan-22" value="posicion_tablero" style="ellipse;whiteSpace=wrap;html=1;fillColor=#dae8fc;strokeColor=#6c8ebf;" vertex="1" parent="1">
          <mxGeometry x="860" y="560" width="96" height="60" as="geometry" />
        </mxCell>
        <mxCell id="wfgGid8vCz2RtBhVFj7B-5" value="" style="triangle;whiteSpace=wrap;html=1;rotation=90;fillColor=#e1d5e7;strokeColor=#9673a6;" vertex="1" parent="1">
          <mxGeometry x="233.5" y="750" width="60" height="80" as="geometry" />
        </mxCell>
        <mxCell id="wfgGid8vCz2RtBhVFj7B-7" value="" style="endArrow=none;html=1;rounded=0;fontSize=12;curved=1;startSize=8;endSize=8;" edge="1" parent="1">
          <mxGeometry relative="1" as="geometry">
            <mxPoint x="183.5" y="780" as="sourcePoint" />
            <mxPoint x="343.5" y="780" as="targetPoint" />
            <Array as="points">
              <mxPoint x="266.5" y="900" />
            </Array>
          </mxGeometry>
        </mxCell>
        <mxCell id="wfgGid8vCz2RtBhVFj7B-9" value="Bot" style="rounded=0;whiteSpace=wrap;html=1;fillColor=#fff2cc;strokeColor=#d6b656;" vertex="1" parent="1">
          <mxGeometry x="123.5" y="862" width="120" height="60" as="geometry" />
        </mxCell>
        <mxCell id="wfgGid8vCz2RtBhVFj7B-10" value="Usuario" style="rounded=0;whiteSpace=wrap;html=1;fillColor=#fff2cc;strokeColor=#d6b656;" vertex="1" parent="1">
          <mxGeometry x="324" y="860" width="120" height="60" as="geometry" />
        </mxCell>
        <mxCell id="wfgGid8vCz2RtBhVFj7B-11" value="" style="endArrow=none;html=1;rounded=0;fontSize=12;curved=1;startSize=8;endSize=8;exitX=0.5;exitY=0;exitDx=0;exitDy=0;" edge="1" parent="1" source="wfgGid8vCz2RtBhVFj7B-10" target="wfgGid8vCz2RtBhVFj7B-5">
          <mxGeometry width="50" height="50" relative="1" as="geometry">
            <mxPoint x="403.5" y="864" as="sourcePoint" />
            <mxPoint x="296.5" y="780" as="targetPoint" />
          </mxGeometry>
        </mxCell>
        <mxCell id="wfgGid8vCz2RtBhVFj7B-13" value="" style="endArrow=none;html=1;rounded=0;fontSize=12;curved=1;startSize=8;endSize=8;exitX=0.5;exitY=0;exitDx=0;exitDy=0;entryX=0.64;entryY=0.679;entryDx=0;entryDy=0;entryPerimeter=0;" edge="1" parent="1" source="wfgGid8vCz2RtBhVFj7B-9" target="wfgGid8vCz2RtBhVFj7B-5">
          <mxGeometry width="50" height="50" relative="1" as="geometry">
            <mxPoint x="90.5" y="870" as="sourcePoint" />
            <mxPoint x="246.5" y="800" as="targetPoint" />
          </mxGeometry>
        </mxCell>
        <mxCell id="uMI0lUIauq0ZDgRMflA2-1" value="ficha" style="ellipse;whiteSpace=wrap;html=1;fillColor=#dae8fc;strokeColor=#6c8ebf;" vertex="1" parent="1">
          <mxGeometry x="654.5" y="573" width="110" height="60" as="geometry" />
        </mxCell>
        <mxCell id="uMI0lUIauq0ZDgRMflA2-3" value="sospechas" style="ellipse;whiteSpace=wrap;html=1;fillColor=#dae8fc;strokeColor=#6c8ebf;" vertex="1" parent="1">
          <mxGeometry x="758.5" y="533" width="127" height="40" as="geometry" />
        </mxCell>
        <mxCell id="d7tCG7x69AUS4NXZiZXm-1" value="fecha_fin" style="ellipse;whiteSpace=wrap;html=1;fillColor=#dae8fc;strokeColor=#6c8ebf;" vertex="1" parent="1">
          <mxGeometry x="1310" y="630" width="110" height="60" as="geometry" />
        </mxCell>
        <mxCell id="d7tCG7x69AUS4NXZiZXm-3" value="&lt;u&gt;id_partida&lt;/u&gt;" style="ellipse;whiteSpace=wrap;html=1;fillColor=#dae8fc;strokeColor=#6c8ebf;" vertex="1" parent="1">
          <mxGeometry x="1014.5" y="490" width="110" height="60" as="geometry" />
        </mxCell>
        <mxCell id="uMI0lUIauq0ZDgRMflA2-6" value="" style="endArrow=none;html=1;rounded=0;fontSize=12;curved=1;startSize=8;endSize=8;entryX=1;entryY=0;entryDx=0;entryDy=0;exitX=0;exitY=1;exitDx=0;exitDy=0;" edge="1" parent="1" source="KOdECNxRX-FhWm_kPqan-22" target="KOdECNxRX-FhWm_kPqan-17">
          <mxGeometry width="50" height="50" relative="1" as="geometry">
            <mxPoint x="893" y="602" as="sourcePoint" />
            <mxPoint x="853" y="590" as="targetPoint" />
          </mxGeometry>
        </mxCell>
        <mxCell id="d7tCG7x69AUS4NXZiZXm-10" value="" style="endArrow=none;html=1;rounded=0;fontSize=12;curved=1;startSize=8;endSize=8;entryX=1;entryY=1;entryDx=0;entryDy=0;exitX=0.425;exitY=0;exitDx=0;exitDy=0;exitPerimeter=0;" edge="1" parent="1" source="KOdECNxRX-FhWm_kPqan-21" target="d7tCG7x69AUS4NXZiZXm-3">
          <mxGeometry width="50" height="50" relative="1" as="geometry">
            <mxPoint x="1189" y="660" as="sourcePoint" />
            <mxPoint x="1178" y="590" as="targetPoint" />
          </mxGeometry>
        </mxCell>
        <mxCell id="d7tCG7x69AUS4NXZiZXm-11" value="" style="endArrow=none;html=1;rounded=0;fontSize=12;curved=1;startSize=8;endSize=8;entryX=0;entryY=0.5;entryDx=0;entryDy=0;exitX=1;exitY=0.75;exitDx=0;exitDy=0;" edge="1" parent="1" source="KOdECNxRX-FhWm_kPqan-21" target="d7tCG7x69AUS4NXZiZXm-1">
          <mxGeometry width="50" height="50" relative="1" as="geometry">
            <mxPoint x="1100" y="660" as="sourcePoint" />
            <mxPoint x="1088" y="600" as="targetPoint" />
          </mxGeometry>
        </mxCell>
        <mxCell id="d7tCG7x69AUS4NXZiZXm-12" value="" style="endArrow=none;html=1;rounded=0;fontSize=12;curved=1;startSize=8;endSize=8;entryX=0.5;entryY=1;entryDx=0;entryDy=0;exitX=1;exitY=0.25;exitDx=0;exitDy=0;" edge="1" parent="1" target="mnLWg_WFQgfrbUWeqkY7-7">
          <mxGeometry width="50" height="50" relative="1" as="geometry">
            <mxPoint x="1180" y="650" as="sourcePoint" />
            <mxPoint x="1234.1091270347551" y="556.2132034355882" as="targetPoint" />
          </mxGeometry>
        </mxCell>
        <mxCell id="d7tCG7x69AUS4NXZiZXm-13" value="" style="endArrow=none;html=1;rounded=0;fontSize=12;curved=1;startSize=8;endSize=8;entryX=1;entryY=0.5;entryDx=0;entryDy=0;" edge="1" parent="1" target="KOdECNxRX-FhWm_kPqan-2">
          <mxGeometry width="50" height="50" relative="1" as="geometry">
            <mxPoint x="350" y="670" as="sourcePoint" />
            <mxPoint x="252" y="640" as="targetPoint" />
          </mxGeometry>
        </mxCell>
        <mxCell id="d7tCG7x69AUS4NXZiZXm-14" value="Tiene" style="rhombus;whiteSpace=wrap;html=1;fillColor=#e1d5e7;strokeColor=#9673a6;" vertex="1" parent="1">
          <mxGeometry x="696" y="380" width="50" height="80" as="geometry" />
        </mxCell>
        <mxCell id="d7tCG7x69AUS4NXZiZXm-17" value="" style="endArrow=none;html=1;rounded=0;exitX=0.5;exitY=0;exitDx=0;exitDy=0;entryX=0;entryY=0.5;entryDx=0;entryDy=0;endFill=0;" edge="1" parent="1" source="d7tCG7x69AUS4NXZiZXm-22" target="d7tCG7x69AUS4NXZiZXm-14">
          <mxGeometry width="50" height="50" relative="1" as="geometry">
            <mxPoint x="946.5" y="60" as="sourcePoint" />
            <mxPoint x="996.5" y="10" as="targetPoint" />
            <Array as="points" />
          </mxGeometry>
        </mxCell>
        <mxCell id="uMI0lUIauq0ZDgRMflA2-7" value="ConversaciÃ³n" style="rounded=0;whiteSpace=wrap;html=1;fillColor=#fff2cc;strokeColor=#d6b656;" vertex="1" parent="1">
          <mxGeometry x="654" y="277" width="120" height="60" as="geometry" />
        </mxCell>
        <mxCell id="mnLWg_WFQgfrbUWeqkY7-7" value="estado" style="ellipse;whiteSpace=wrap;html=1;fillColor=#dae8fc;strokeColor=#6c8ebf;" vertex="1" parent="1">
          <mxGeometry x="1131" y="480" width="110" height="60" as="geometry" />
        </mxCell>
        <mxCell id="d7tCG7x69AUS4NXZiZXm-24" value="Contenido" style="ellipse;whiteSpace=wrap;html=1;fillColor=#dae8fc;strokeColor=#6c8ebf;" vertex="1" parent="1">
          <mxGeometry x="757.5" y="200" width="96" height="60" as="geometry" />
        </mxCell>
        <mxCell id="d7tCG7x69AUS4NXZiZXm-25" value="&lt;u&gt;Emisor&lt;/u&gt;" style="ellipse;whiteSpace=wrap;html=1;fillColor=#dae8fc;strokeColor=#6c8ebf;" vertex="1" parent="1">
          <mxGeometry x="507" y="270" width="96" height="60" as="geometry" />
        </mxCell>
        <mxCell id="d7tCG7x69AUS4NXZiZXm-26" value="&lt;u&gt;Instante&lt;/u&gt;" style="ellipse;whiteSpace=wrap;html=1;fillColor=#dae8fc;strokeColor=#6c8ebf;" vertex="1" parent="1">
          <mxGeometry x="570" y="200" width="96" height="60" as="geometry" />
        </mxCell>
        <mxCell id="d7tCG7x69AUS4NXZiZXm-27" value="&lt;u&gt;Partida&lt;/u&gt;" style="ellipse;whiteSpace=wrap;html=1;fillColor=#dae8fc;strokeColor=#6c8ebf;" vertex="1" parent="1">
          <mxGeometry x="839" y="277" width="96" height="60" as="geometry" />
        </mxCell>
        <mxCell id="d7tCG7x69AUS4NXZiZXm-30" value="" style="endArrow=none;html=1;rounded=0;fontSize=12;curved=1;startSize=8;endSize=8;exitX=1;exitY=0.5;exitDx=0;exitDy=0;entryX=0.011;entryY=0.387;entryDx=0;entryDy=0;entryPerimeter=0;" edge="1" parent="1" source="d7tCG7x69AUS4NXZiZXm-25" target="uMI0lUIauq0ZDgRMflA2-7">
          <mxGeometry width="50" height="50" relative="1" as="geometry">
            <mxPoint x="530" y="247" as="sourcePoint" />
            <mxPoint x="604" y="177" as="targetPoint" />
          </mxGeometry>
        </mxCell>
        <mxCell id="d7tCG7x69AUS4NXZiZXm-31" value="" style="endArrow=none;html=1;rounded=0;fontSize=12;curved=1;startSize=8;endSize=8;exitX=0.995;exitY=0.767;exitDx=0;exitDy=0;entryX=0.25;entryY=0;entryDx=0;entryDy=0;exitPerimeter=0;" edge="1" parent="1" source="d7tCG7x69AUS4NXZiZXm-26" target="uMI0lUIauq0ZDgRMflA2-7">
          <mxGeometry width="50" height="50" relative="1" as="geometry">
            <mxPoint x="589" y="342" as="sourcePoint" />
            <mxPoint x="639" y="337" as="targetPoint" />
          </mxGeometry>
        </mxCell>
        <mxCell id="d7tCG7x69AUS4NXZiZXm-32" value="" style="endArrow=none;html=1;rounded=0;fontSize=12;curved=1;startSize=8;endSize=8;entryX=0.75;entryY=0;entryDx=0;entryDy=0;exitX=0;exitY=1;exitDx=0;exitDy=0;" edge="1" parent="1" source="d7tCG7x69AUS4NXZiZXm-24" target="uMI0lUIauq0ZDgRMflA2-7">
          <mxGeometry width="50" height="50" relative="1" as="geometry">
            <mxPoint x="784.5" y="365" as="sourcePoint" />
            <mxPoint x="664" y="347" as="targetPoint" />
          </mxGeometry>
        </mxCell>
        <mxCell id="d7tCG7x69AUS4NXZiZXm-33" value="" style="endArrow=none;html=1;rounded=0;fontSize=12;curved=1;startSize=8;endSize=8;exitX=1;exitY=0.5;exitDx=0;exitDy=0;entryX=0;entryY=0.5;entryDx=0;entryDy=0;" edge="1" parent="1" source="uMI0lUIauq0ZDgRMflA2-7" target="d7tCG7x69AUS4NXZiZXm-27">
          <mxGeometry width="50" height="50" relative="1" as="geometry">
            <mxPoint x="751" y="377" as="sourcePoint" />
            <mxPoint x="754" y="347" as="targetPoint" />
          </mxGeometry>
        </mxCell>
        <mxCell id="wiIumI7MI7V9PX__2pF9-27" style="edgeStyle=orthogonalEdgeStyle;rounded=0;orthogonalLoop=1;jettySize=auto;html=1;exitX=0.5;exitY=1;exitDx=0;exitDy=0;endArrow=none;endFill=0;" edge="1" parent="1" source="wiIumI7MI7V9PX__2pF9-3" target="wiIumI7MI7V9PX__2pF9-20">
          <mxGeometry relative="1" as="geometry" />
        </mxCell>
        <mxCell id="wiIumI7MI7V9PX__2pF9-3" value="Asesino" style="rounded=0;whiteSpace=wrap;html=1;fillColor=#fff2cc;strokeColor=#d6b656;" vertex="1" parent="1">
          <mxGeometry x="751" y="1060" width="120" height="60" as="geometry" />
        </mxCell>
        <mxCell id="wiIumI7MI7V9PX__2pF9-28" style="edgeStyle=orthogonalEdgeStyle;rounded=0;orthogonalLoop=1;jettySize=auto;html=1;exitX=0.5;exitY=1;exitDx=0;exitDy=0;endArrow=none;endFill=0;" edge="1" parent="1" source="wiIumI7MI7V9PX__2pF9-4" target="wiIumI7MI7V9PX__2pF9-25">
          <mxGeometry relative="1" as="geometry" />
        </mxCell>
        <mxCell id="wiIumI7MI7V9PX__2pF9-4" value="Arma" style="rounded=0;whiteSpace=wrap;html=1;fillColor=#fff2cc;strokeColor=#d6b656;" vertex="1" parent="1">
          <mxGeometry x="913" y="1060" width="120" height="60" as="geometry" />
        </mxCell>
        <mxCell id="wiIumI7MI7V9PX__2pF9-29" style="edgeStyle=orthogonalEdgeStyle;rounded=0;orthogonalLoop=1;jettySize=auto;html=1;exitX=0.5;exitY=1;exitDx=0;exitDy=0;endArrow=none;endFill=0;" edge="1" parent="1" source="wiIumI7MI7V9PX__2pF9-5" target="wiIumI7MI7V9PX__2pF9-26">
          <mxGeometry relative="1" as="geometry" />
        </mxCell>
        <mxCell id="wiIumI7MI7V9PX__2pF9-5" value="Lugar" style="rounded=0;whiteSpace=wrap;html=1;fillColor=#fff2cc;strokeColor=#d6b656;" vertex="1" parent="1">
          <mxGeometry x="1086" y="1060" width="120" height="60" as="geometry" />
        </mxCell>
        <mxCell id="wiIumI7MI7V9PX__2pF9-6" value="quien" style="rhombus;whiteSpace=wrap;html=1;fillColor=#e1d5e7;strokeColor=#9673a6;" vertex="1" parent="1">
          <mxGeometry x="944" y="882" width="39" height="40" as="geometry" />
        </mxCell>
        <mxCell id="wiIumI7MI7V9PX__2pF9-8" value="con que" style="rhombus;whiteSpace=wrap;html=1;fillColor=#e1d5e7;strokeColor=#9673a6;" vertex="1" parent="1">
          <mxGeometry x="1023.5" y="876" width="39" height="40" as="geometry" />
        </mxCell>
        <mxCell id="wiIumI7MI7V9PX__2pF9-14" value="" style="edgeStyle=orthogonalEdgeStyle;rounded=0;orthogonalLoop=1;jettySize=auto;html=1;endArrow=classic;endFill=1;" edge="1" parent="1" source="wiIumI7MI7V9PX__2pF9-9" target="wiIumI7MI7V9PX__2pF9-5">
          <mxGeometry relative="1" as="geometry" />
        </mxCell>
        <mxCell id="wiIumI7MI7V9PX__2pF9-9" value="donde" style="rhombus;whiteSpace=wrap;html=1;fillColor=#e1d5e7;strokeColor=#9673a6;" vertex="1" parent="1">
          <mxGeometry x="1126.5" y="882" width="39" height="40" as="geometry" />
        </mxCell>
        <mxCell id="wiIumI7MI7V9PX__2pF9-18" value="fecha_ini" style="ellipse;whiteSpace=wrap;html=1;fillColor=#dae8fc;strokeColor=#6c8ebf;" vertex="1" parent="1">
          <mxGeometry x="1310" y="555" width="110" height="60" as="geometry" />
        </mxCell>
        <mxCell id="wiIumI7MI7V9PX__2pF9-20" value="&lt;u&gt;nombre&lt;/u&gt;" style="ellipse;whiteSpace=wrap;html=1;fillColor=#dae8fc;strokeColor=#6c8ebf;" vertex="1" parent="1">
          <mxGeometry x="756" y="1153" width="110" height="60" as="geometry" />
        </mxCell>
        <mxCell id="wiIumI7MI7V9PX__2pF9-21" value="turno" style="ellipse;whiteSpace=wrap;html=1;fillColor=#dae8fc;strokeColor=#6c8ebf;" vertex="1" parent="1">
          <mxGeometry x="1260" y="480" width="110" height="60" as="geometry" />
        </mxCell>
        <mxCell id="wiIumI7MI7V9PX__2pF9-23" value="" style="endArrow=none;html=1;rounded=0;fontSize=12;curved=1;startSize=8;endSize=8;entryX=0;entryY=0.5;entryDx=0;entryDy=0;exitX=1;exitY=0.5;exitDx=0;exitDy=0;" edge="1" parent="1" source="KOdECNxRX-FhWm_kPqan-21" target="wiIumI7MI7V9PX__2pF9-18">
          <mxGeometry width="50" height="50" relative="1" as="geometry">
            <mxPoint x="1274.5" y="700" as="sourcePoint" />
            <mxPoint x="1257.5" y="600" as="targetPoint" />
          </mxGeometry>
        </mxCell>
        <mxCell id="wiIumI7MI7V9PX__2pF9-24" value="" style="endArrow=none;html=1;rounded=0;fontSize=12;curved=1;startSize=8;endSize=8;" edge="1" parent="1" source="KOdECNxRX-FhWm_kPqan-21" target="wiIumI7MI7V9PX__2pF9-21">
          <mxGeometry width="50" height="50" relative="1" as="geometry">
            <mxPoint x="1223" y="662" as="sourcePoint" />
            <mxPoint x="1341" y="660" as="targetPoint" />
          </mxGeometry>
        </mxCell>
        <mxCell id="wiIumI7MI7V9PX__2pF9-25" value="&lt;u&gt;nombre&lt;/u&gt;" style="ellipse;whiteSpace=wrap;html=1;fillColor=#dae8fc;strokeColor=#6c8ebf;" vertex="1" parent="1">
          <mxGeometry x="918" y="1153" width="110" height="60" as="geometry" />
        </mxCell>
        <mxCell id="wiIumI7MI7V9PX__2pF9-26" value="&lt;u&gt;nombre&lt;/u&gt;" style="ellipse;whiteSpace=wrap;html=1;fillColor=#dae8fc;strokeColor=#6c8ebf;" vertex="1" parent="1">
          <mxGeometry x="1091" y="1153" width="110" height="60" as="geometry" />
        </mxCell>
        <mxCell id="wiIumI7MI7V9PX__2pF9-31" value="cartas_arma" style="rhombus;whiteSpace=wrap;html=1;fillColor=#e1d5e7;strokeColor=#9673a6;" vertex="1" parent="1">
          <mxGeometry x="688" y="880" width="39" height="40" as="geometry" />
        </mxCell>
        <mxCell id="wiIumI7MI7V9PX__2pF9-32" value="cartas_lugar" style="rhombus;whiteSpace=wrap;html=1;fillColor=#e1d5e7;strokeColor=#9673a6;" vertex="1" parent="1">
          <mxGeometry x="791.5" y="876" width="39" height="42" as="geometry" />
        </mxCell>
        <mxCell id="wiIumI7MI7V9PX__2pF9-35" value="cartas_asesino" style="rhombus;whiteSpace=wrap;html=1;fillColor=#e1d5e7;strokeColor=#9673a6;" vertex="1" parent="1">
          <mxGeometry x="570" y="878" width="39" height="40" as="geometry" />
        </mxCell>
        <mxCell id="1Ius5awWAgnaVNtp2Uqm-1" value="" style="endArrow=none;html=1;rounded=0;entryX=1;entryY=0.5;entryDx=0;entryDy=0;endFill=0;exitX=0.25;exitY=0;exitDx=0;exitDy=0;" edge="1" parent="1" source="d7tCG7x69AUS4NXZiZXm-23" target="d7tCG7x69AUS4NXZiZXm-14">
          <mxGeometry width="50" height="50" relative="1" as="geometry">
            <mxPoint x="1423.5" y="-50" as="sourcePoint" />
            <mxPoint x="727.5" y="52" as="targetPoint" />
            <Array as="points" />
          </mxGeometry>
        </mxCell>
        <mxCell id="wiIumI7MI7V9PX__2pF9-47" value="" style="endArrow=none;html=1;rounded=0;entryX=0;entryY=1;entryDx=0;entryDy=0;exitX=0.5;exitY=0;exitDx=0;exitDy=0;" edge="1" parent="1" source="wiIumI7MI7V9PX__2pF9-69" target="KOdECNxRX-FhWm_kPqan-17">
          <mxGeometry width="50" height="50" relative="1" as="geometry">
            <mxPoint x="710" y="787" as="sourcePoint" />
            <mxPoint x="760" y="737" as="targetPoint" />
          </mxGeometry>
        </mxCell>
        <mxCell id="wiIumI7MI7V9PX__2pF9-48" value="" style="endArrow=none;html=1;rounded=0;exitX=1;exitY=1;exitDx=0;exitDy=0;entryX=0.5;entryY=0;entryDx=0;entryDy=0;" edge="1" parent="1" source="wiIumI7MI7V9PX__2pF9-75" target="wiIumI7MI7V9PX__2pF9-32">
          <mxGeometry width="50" height="50" relative="1" as="geometry">
            <mxPoint x="770" y="815" as="sourcePoint" />
            <mxPoint x="820" y="765" as="targetPoint" />
          </mxGeometry>
        </mxCell>
        <mxCell id="wiIumI7MI7V9PX__2pF9-49" value="" style="endArrow=none;html=1;rounded=0;exitX=0;exitY=0.5;exitDx=0;exitDy=0;entryX=0.5;entryY=1;entryDx=0;entryDy=0;" edge="1" parent="1" source="wiIumI7MI7V9PX__2pF9-3" target="wiIumI7MI7V9PX__2pF9-35">
          <mxGeometry width="50" height="50" relative="1" as="geometry">
            <mxPoint x="559" y="990" as="sourcePoint" />
            <mxPoint x="609" y="940" as="targetPoint" />
          </mxGeometry>
        </mxCell>
        <mxCell id="wiIumI7MI7V9PX__2pF9-50" value="" style="endArrow=none;html=1;rounded=0;entryX=0.5;entryY=1;entryDx=0;entryDy=0;" edge="1" parent="1" source="wiIumI7MI7V9PX__2pF9-4" target="wiIumI7MI7V9PX__2pF9-31">
          <mxGeometry width="50" height="50" relative="1" as="geometry">
            <mxPoint x="963" y="1043" as="sourcePoint" />
            <mxPoint x="802" y="871" as="targetPoint" />
          </mxGeometry>
        </mxCell>
        <mxCell id="wiIumI7MI7V9PX__2pF9-52" value="" style="endArrow=none;html=1;rounded=0;entryX=0.5;entryY=1;entryDx=0;entryDy=0;exitX=0;exitY=0;exitDx=0;exitDy=0;" edge="1" parent="1" source="wiIumI7MI7V9PX__2pF9-5" target="wiIumI7MI7V9PX__2pF9-32">
          <mxGeometry width="50" height="50" relative="1" as="geometry">
            <mxPoint x="1048" y="1059" as="sourcePoint" />
            <mxPoint x="810" y="918" as="targetPoint" />
          </mxGeometry>
        </mxCell>
        <mxCell id="wiIumI7MI7V9PX__2pF9-53" value="" style="endArrow=none;html=1;rounded=0;entryX=0.381;entryY=0.855;entryDx=0;entryDy=0;exitX=0.5;exitY=0;exitDx=0;exitDy=0;entryPerimeter=0;" edge="1" parent="1" source="wiIumI7MI7V9PX__2pF9-73" target="KOdECNxRX-FhWm_kPqan-17">
          <mxGeometry width="50" height="50" relative="1" as="geometry">
            <mxPoint x="991" y="940" as="sourcePoint" />
            <mxPoint x="777" y="800" as="targetPoint" />
          </mxGeometry>
        </mxCell>
        <mxCell id="wiIumI7MI7V9PX__2pF9-54" value="" style="endArrow=none;html=1;rounded=0;fontSize=12;curved=1;startSize=8;endSize=8;entryX=0;entryY=0;entryDx=0;entryDy=0;exitX=0.977;exitY=0.683;exitDx=0;exitDy=0;exitPerimeter=0;" edge="1" parent="1" source="uMI0lUIauq0ZDgRMflA2-1" target="KOdECNxRX-FhWm_kPqan-17">
          <mxGeometry width="50" height="50" relative="1" as="geometry">
            <mxPoint x="884" y="621" as="sourcePoint" />
            <mxPoint x="845" y="670" as="targetPoint" />
          </mxGeometry>
        </mxCell>
        <mxCell id="wiIumI7MI7V9PX__2pF9-56" value="" style="endArrow=none;html=1;rounded=0;exitX=0.25;exitY=0;exitDx=0;exitDy=0;entryX=0.5;entryY=1;entryDx=0;entryDy=0;startArrow=classic;startFill=1;" edge="1" parent="1" source="wiIumI7MI7V9PX__2pF9-3" target="wiIumI7MI7V9PX__2pF9-6">
          <mxGeometry width="50" height="50" relative="1" as="geometry">
            <mxPoint x="1001" y="1060" as="sourcePoint" />
            <mxPoint x="840" y="888" as="targetPoint" />
          </mxGeometry>
        </mxCell>
        <mxCell id="wiIumI7MI7V9PX__2pF9-57" value="" style="endArrow=none;html=1;rounded=0;entryX=0.5;entryY=1;entryDx=0;entryDy=0;exitX=0.5;exitY=0;exitDx=0;exitDy=0;startArrow=classic;startFill=1;" edge="1" parent="1" source="wiIumI7MI7V9PX__2pF9-4" target="wiIumI7MI7V9PX__2pF9-8">
          <mxGeometry width="50" height="50" relative="1" as="geometry">
            <mxPoint x="1268" y="1062" as="sourcePoint" />
            <mxPoint x="1050" y="922" as="targetPoint" />
          </mxGeometry>
        </mxCell>
        <mxCell id="wiIumI7MI7V9PX__2pF9-60" value="" style="endArrow=none;html=1;rounded=0;entryX=0;entryY=1;entryDx=0;entryDy=0;exitX=0.5;exitY=0;exitDx=0;exitDy=0;" edge="1" parent="1" source="wiIumI7MI7V9PX__2pF9-6" target="KOdECNxRX-FhWm_kPqan-21">
          <mxGeometry width="50" height="50" relative="1" as="geometry">
            <mxPoint x="983" y="898" as="sourcePoint" />
            <mxPoint x="1083" y="720" as="targetPoint" />
          </mxGeometry>
        </mxCell>
        <mxCell id="wiIumI7MI7V9PX__2pF9-61" value="" style="endArrow=none;html=1;rounded=0;entryX=0.25;entryY=1;entryDx=0;entryDy=0;exitX=0.5;exitY=0;exitDx=0;exitDy=0;" edge="1" parent="1" source="wiIumI7MI7V9PX__2pF9-9" target="KOdECNxRX-FhWm_kPqan-21">
          <mxGeometry width="50" height="50" relative="1" as="geometry">
            <mxPoint x="1146.5" y="928" as="sourcePoint" />
            <mxPoint x="1246.5" y="750" as="targetPoint" />
          </mxGeometry>
        </mxCell>
        <mxCell id="wiIumI7MI7V9PX__2pF9-62" value="" style="endArrow=none;html=1;rounded=0;exitX=0.5;exitY=0;exitDx=0;exitDy=0;" edge="1" parent="1" source="wiIumI7MI7V9PX__2pF9-8">
          <mxGeometry width="50" height="50" relative="1" as="geometry">
            <mxPoint x="740" y="908" as="sourcePoint" />
            <mxPoint x="1120" y="710" as="targetPoint" />
          </mxGeometry>
        </mxCell>
        <mxCell id="wiIumI7MI7V9PX__2pF9-63" value="" style="edgeStyle=orthogonalEdgeStyle;rounded=0;orthogonalLoop=1;jettySize=auto;html=1;exitX=1;exitY=0.5;exitDx=0;exitDy=0;entryX=0;entryY=0.5;entryDx=0;entryDy=0;endArrow=none;endFill=0;" edge="1" parent="1" source="KOdECNxRX-FhWm_kPqan-17" target="d7tCG7x69AUS4NXZiZXm-8">
          <mxGeometry relative="1" as="geometry">
            <mxPoint x="847" y="680" as="sourcePoint" />
            <mxPoint x="1103" y="680" as="targetPoint" />
          </mxGeometry>
        </mxCell>
        <mxCell id="d7tCG7x69AUS4NXZiZXm-8" value="(N,M)" style="text;html=1;align=center;verticalAlign=middle;resizable=0;points=[];autosize=1;strokeColor=none;fillColor=none;" vertex="1" parent="1">
          <mxGeometry x="860" y="665" width="50" height="30" as="geometry" />
        </mxCell>
        <mxCell id="wiIumI7MI7V9PX__2pF9-64" value="" style="endArrow=none;html=1;rounded=0;fontSize=12;curved=1;startSize=8;endSize=8;entryX=1;entryY=0.5;entryDx=0;entryDy=0;exitX=0;exitY=0.5;exitDx=0;exitDy=0;" edge="1" parent="1" source="KOdECNxRX-FhWm_kPqan-17" target="KOdECNxRX-FhWm_kPqan-19">
          <mxGeometry width="50" height="50" relative="1" as="geometry">
            <mxPoint x="797" y="680" as="sourcePoint" />
            <mxPoint x="469" y="680" as="targetPoint" />
          </mxGeometry>
        </mxCell>
        <mxCell id="KOdECNxRX-FhWm_kPqan-19" value="(1,0)" style="text;html=1;strokeColor=none;fillColor=none;align=center;verticalAlign=middle;whiteSpace=wrap;rounded=0;" vertex="1" parent="1">
          <mxGeometry x="729" y="665" width="60" height="30" as="geometry" />
        </mxCell>
        <mxCell id="wiIumI7MI7V9PX__2pF9-72" value="" style="endArrow=none;html=1;rounded=0;entryX=0;entryY=1;entryDx=0;entryDy=0;exitX=0.5;exitY=0;exitDx=0;exitDy=0;" edge="1" parent="1" source="wiIumI7MI7V9PX__2pF9-35" target="wiIumI7MI7V9PX__2pF9-69">
          <mxGeometry width="50" height="50" relative="1" as="geometry">
            <mxPoint x="590" y="878" as="sourcePoint" />
            <mxPoint x="690" y="700" as="targetPoint" />
          </mxGeometry>
        </mxCell>
        <mxCell id="wiIumI7MI7V9PX__2pF9-69" value="(N,M)" style="text;html=1;strokeColor=none;fillColor=none;align=center;verticalAlign=middle;whiteSpace=wrap;rounded=0;" vertex="1" parent="1">
          <mxGeometry x="609" y="800" width="60" height="30" as="geometry" />
        </mxCell>
        <mxCell id="wiIumI7MI7V9PX__2pF9-74" value="" style="endArrow=none;html=1;rounded=0;entryX=0.5;entryY=1;entryDx=0;entryDy=0;exitX=0.5;exitY=0;exitDx=0;exitDy=0;" edge="1" parent="1" source="wiIumI7MI7V9PX__2pF9-31" target="wiIumI7MI7V9PX__2pF9-73">
          <mxGeometry width="50" height="50" relative="1" as="geometry">
            <mxPoint x="708" y="880" as="sourcePoint" />
            <mxPoint x="702" y="720" as="targetPoint" />
          </mxGeometry>
        </mxCell>
        <mxCell id="wiIumI7MI7V9PX__2pF9-73" value="(N,M)" style="text;html=1;strokeColor=none;fillColor=none;align=center;verticalAlign=middle;whiteSpace=wrap;rounded=0;" vertex="1" parent="1">
          <mxGeometry x="672" y="820" width="60" height="30" as="geometry" />
        </mxCell>
        <mxCell id="wiIumI7MI7V9PX__2pF9-76" value="" style="endArrow=none;html=1;rounded=0;exitX=0.5;exitY=1;exitDx=0;exitDy=0;entryX=0.5;entryY=0;entryDx=0;entryDy=0;" edge="1" parent="1" source="KOdECNxRX-FhWm_kPqan-17" target="wiIumI7MI7V9PX__2pF9-75">
          <mxGeometry width="50" height="50" relative="1" as="geometry">
            <mxPoint x="835" y="700" as="sourcePoint" />
            <mxPoint x="931" y="876" as="targetPoint" />
          </mxGeometry>
        </mxCell>
        <mxCell id="wiIumI7MI7V9PX__2pF9-75" value="(N,M)" style="text;html=1;strokeColor=none;fillColor=none;align=center;verticalAlign=middle;whiteSpace=wrap;rounded=0;" vertex="1" parent="1">
          <mxGeometry x="727" y="800" width="60" height="30" as="geometry" />
        </mxCell>
        <mxCell id="wiIumI7MI7V9PX__2pF9-77" value="(N,1)" style="text;html=1;strokeColor=none;fillColor=none;align=center;verticalAlign=middle;whiteSpace=wrap;rounded=0;" vertex="1" parent="1">
          <mxGeometry x="903" y="875" width="60" height="30" as="geometry" />
        </mxCell>
        <mxCell id="wiIumI7MI7V9PX__2pF9-79" value="(N,1)" style="text;html=1;strokeColor=none;fillColor=none;align=center;verticalAlign=middle;whiteSpace=wrap;rounded=0;" vertex="1" parent="1">
          <mxGeometry x="988" y="870" width="60" height="30" as="geometry" />
        </mxCell>
        <mxCell id="wiIumI7MI7V9PX__2pF9-80" value="(N,1)" style="text;html=1;strokeColor=none;fillColor=none;align=center;verticalAlign=middle;whiteSpace=wrap;rounded=0;" vertex="1" parent="1">
          <mxGeometry x="1100" y="870" width="60" height="30" as="geometry" />
        </mxCell>
        <mxCell id="wiIumI7MI7V9PX__2pF9-81" value="No sÃ© si estÃ¡ bien la notaciÃ³n, 1 partida tiene 1asesino pero 1 asesino tienen N partidas" style="text;html=1;align=center;verticalAlign=middle;whiteSpace=wrap;rounded=0;" vertex="1" parent="1">
          <mxGeometry x="859" y="822" width="124" as="geometry" />
        </mxCell>
        <mxCell id="wiIumI7MI7V9PX__2pF9-86" value="" style="endArrow=none;html=1;rounded=0;entryX=1;entryY=0.5;entryDx=0;entryDy=0;endFill=0;exitX=0.25;exitY=0;exitDx=0;exitDy=0;" edge="1" parent="1" source="KOdECNxRX-FhWm_kPqan-21" target="d7tCG7x69AUS4NXZiZXm-23">
          <mxGeometry width="50" height="50" relative="1" as="geometry">
            <mxPoint x="1133" y="650" as="sourcePoint" />
            <mxPoint x="720" y="400" as="targetPoint" />
            <Array as="points" />
          </mxGeometry>
        </mxCell>
        <mxCell id="d7tCG7x69AUS4NXZiZXm-23" value="(1,1)" style="text;html=1;align=center;verticalAlign=middle;resizable=0;points=[];autosize=1;strokeColor=none;fillColor=none;" vertex="1" parent="1">
          <mxGeometry x="792" y="440" width="50" height="30" as="geometry" />
        </mxCell>
        <mxCell id="wiIumI7MI7V9PX__2pF9-87" value="" style="endArrow=none;html=1;rounded=0;exitX=0.5;exitY=0;exitDx=0;exitDy=0;entryX=0;entryY=1;entryDx=0;entryDy=0;endFill=0;" edge="1" parent="1" source="KOdECNxRX-FhWm_kPqan-5" target="d7tCG7x69AUS4NXZiZXm-22">
          <mxGeometry width="50" height="50" relative="1" as="geometry">
            <mxPoint x="409" y="650" as="sourcePoint" />
            <mxPoint x="682" y="420" as="targetPoint" />
            <Array as="points" />
          </mxGeometry>
        </mxCell>
        <mxCell id="d7tCG7x69AUS4NXZiZXm-22" value="(1,N)" style="text;html=1;align=center;verticalAlign=middle;resizable=0;points=[];autosize=1;strokeColor=none;fillColor=none;" vertex="1" parent="1">
          <mxGeometry x="580" y="470" width="50" height="30" as="geometry" />
        </mxCell>
        <mxCell id="wiIumI7MI7V9PX__2pF9-90" value="" style="endArrow=classic;html=1;rounded=0;entryX=0.5;entryY=1;entryDx=0;entryDy=0;exitX=0.5;exitY=0;exitDx=0;exitDy=0;endFill=1;" edge="1" parent="1" source="d7tCG7x69AUS4NXZiZXm-14" target="uMI0lUIauq0ZDgRMflA2-7">
          <mxGeometry width="50" height="50" relative="1" as="geometry">
            <mxPoint x="710" y="400" as="sourcePoint" />
            <mxPoint x="760" y="350" as="targetPoint" />
          </mxGeometry>
        </mxCell>
        <mxCell id="wiIumI7MI7V9PX__2pF9-93" value="" style="swimlane;startSize=0;" vertex="1" parent="1">
          <mxGeometry x="990" y="280" width="321" height="60" as="geometry" />
        </mxCell>
        <mxCell id="d7tCG7x69AUS4NXZiZXm-29" value="Restriccion de Ficha: Solo pueden ser los nombres &lt;br&gt;de los presonajes determinados" style="text;html=1;align=center;verticalAlign=middle;resizable=0;points=[];autosize=1;strokeColor=none;fillColor=none;" vertex="1" parent="wiIumI7MI7V9PX__2pF9-93">
          <mxGeometry x="16.5" y="20" width="290" height="40" as="geometry" />
        </mxCell>
        <mxCell id="7HEomyQ05TQ9fBD3r0M4-2" value="" style="endArrow=none;html=1;rounded=0;entryX=0.5;entryY=1;entryDx=0;entryDy=0;exitX=0;exitY=0.5;exitDx=0;exitDy=0;" edge="1" parent="1" source="wfgGid8vCz2RtBhVFj7B-5" target="KOdECNxRX-FhWm_kPqan-5">
          <mxGeometry width="50" height="50" relative="1" as="geometry">
            <mxPoint x="850" y="830" as="sourcePoint" />
            <mxPoint x="900" y="780" as="targetPoint" />
          </mxGeometry>
        </mxCell>
        <mxCell id="7HEomyQ05TQ9fBD3r0M4-4" value="nivel_dificultad" style="ellipse;whiteSpace=wrap;html=1;fillColor=#dae8fc;strokeColor=#6c8ebf;" vertex="1" parent="1">
          <mxGeometry x="64" y="960" width="103" height="60" as="geometry" />
        </mxCell>
        <mxCell id="7HEomyQ05TQ9fBD3r0M4-5" value="" style="endArrow=none;html=1;rounded=0;fontSize=12;curved=1;startSize=8;endSize=8;exitX=0.5;exitY=1;exitDx=0;exitDy=0;entryX=0.5;entryY=0;entryDx=0;entryDy=0;" edge="1" parent="1" source="wfgGid8vCz2RtBhVFj7B-9" target="7HEomyQ05TQ9fBD3r0M4-4">
          <mxGeometry width="50" height="50" relative="1" as="geometry">
            <mxPoint x="424" y="870" as="sourcePoint" />
            <mxPoint x="429" y="810" as="targetPoint" />
          </mxGeometry>
        </mxCell>
        <mxCell id="3J4UU6ZWotAhFrMAAytL-5" value="" style="triangle;whiteSpace=wrap;html=1;rotation=90;fillColor=#e1d5e7;strokeColor=#9673a6;" vertex="1" parent="1">
          <mxGeometry x="1311" y="760" width="60" height="80" as="geometry" />
        </mxCell>
        <mxCell id="3J4UU6ZWotAhFrMAAytL-6" value="" style="endArrow=none;html=1;rounded=0;fontSize=12;curved=1;startSize=8;endSize=8;" edge="1" parent="1">
          <mxGeometry relative="1" as="geometry">
            <mxPoint x="1261" y="790" as="sourcePoint" />
            <mxPoint x="1421" y="790" as="targetPoint" />
            <Array as="points">
              <mxPoint x="1344" y="910" />
            </Array>
          </mxGeometry>
        </mxCell>
        <mxCell id="3J4UU6ZWotAhFrMAAytL-7" value="Onlune" style="rounded=0;whiteSpace=wrap;html=1;fillColor=#fff2cc;strokeColor=#d6b656;" vertex="1" parent="1">
          <mxGeometry x="1201" y="872" width="120" height="60" as="geometry" />
        </mxCell>
        <mxCell id="3J4UU6ZWotAhFrMAAytL-8" value="Local" style="rounded=0;whiteSpace=wrap;html=1;fillColor=#fff2cc;strokeColor=#d6b656;" vertex="1" parent="1">
          <mxGeometry x="1401.5" y="870" width="120" height="60" as="geometry" />
        </mxCell>
        <mxCell id="3J4UU6ZWotAhFrMAAytL-9" value="" style="endArrow=none;html=1;rounded=0;fontSize=12;curved=1;startSize=8;endSize=8;exitX=0.5;exitY=0;exitDx=0;exitDy=0;" edge="1" parent="1" source="3J4UU6ZWotAhFrMAAytL-8" target="3J4UU6ZWotAhFrMAAytL-5">
          <mxGeometry width="50" height="50" relative="1" as="geometry">
            <mxPoint x="1481" y="874" as="sourcePoint" />
            <mxPoint x="1374" y="790" as="targetPoint" />
          </mxGeometry>
        </mxCell>
        <mxCell id="3J4UU6ZWotAhFrMAAytL-10" value="" style="endArrow=none;html=1;rounded=0;fontSize=12;curved=1;startSize=8;endSize=8;exitX=0.5;exitY=0;exitDx=0;exitDy=0;entryX=0.64;entryY=0.679;entryDx=0;entryDy=0;entryPerimeter=0;" edge="1" parent="1" source="3J4UU6ZWotAhFrMAAytL-7" target="3J4UU6ZWotAhFrMAAytL-5">
          <mxGeometry width="50" height="50" relative="1" as="geometry">
            <mxPoint x="1168" y="880" as="sourcePoint" />
            <mxPoint x="1324" y="810" as="targetPoint" />
          </mxGeometry>
        </mxCell>
        <mxCell id="3J4UU6ZWotAhFrMAAytL-13" value="" style="endArrow=none;html=1;rounded=0;fontSize=12;curved=1;startSize=8;endSize=8;entryX=0;entryY=0.5;entryDx=0;entryDy=0;exitX=0.75;exitY=1;exitDx=0;exitDy=0;" edge="1" parent="1" source="KOdECNxRX-FhWm_kPqan-21" target="3J4UU6ZWotAhFrMAAytL-5">
          <mxGeometry width="50" height="50" relative="1" as="geometry">
            <mxPoint x="1233" y="705" as="sourcePoint" />
            <mxPoint x="1320" y="670" as="targetPoint" />
          </mxGeometry>
        </mxCell>
      </root>
    </mxGraphModel>
  </diagram>
</mxfile>
